<svg width="134" height="156" viewBox="0 0 134 156" fill="none" xmlns="http://www.w3.org/2000/svg">
<circle cx="69" cy="82" r="60.5" stroke="url(#paint0_radial_1_316)"/>
<circle cx="69.5" cy="82.5" r="50" stroke="url(#paint1_radial_1_316)"/>
<circle cx="69.5" cy="82.5" r="39" stroke="url(#paint2_radial_1_316)"/>
<circle cx="69" cy="82" r="27.5" stroke="url(#paint3_radial_1_316)"/>
<path fill-rule="evenodd" clip-rule="evenodd" d="M85.1999 37.7378C57.9931 30.4477 30.0279 46.5935 22.7379 73.8002C21.3085 79.1349 15.8251 82.3007 10.4904 80.8713C5.15579 79.4419 1.98996 73.9585 3.41938 68.6238C13.5682 30.7478 52.5002 8.2704 90.3763 18.4193C95.7109 19.8487 98.8768 25.3321 97.4473 30.6667C96.0179 36.0014 90.5345 39.1672 85.1999 37.7378Z" fill="url(#paint4_radial_1_316)"/>
<path fill-rule="evenodd" clip-rule="evenodd" d="M96.4666 39.1436C99.1487 35.9871 103.882 35.6025 107.038 38.2847C119.545 48.9119 127.5 64.7808 127.5 82.5C127.5 86.6421 124.142 90 120 90C115.858 90 112.5 86.6421 112.5 82.5C112.5 69.3668 106.621 57.6143 97.3255 49.7153C94.169 47.0332 93.7844 42.3001 96.4666 39.1436Z" fill="url(#paint5_linear_1_316)"/>
<path fill-rule="evenodd" clip-rule="evenodd" d="M69.5 53C53.2076 53 40 66.2076 40 82.5C40 88.5964 41.8384 94.2331 44.9895 98.9234C48.0694 103.508 46.8498 109.721 42.2655 112.801C37.6811 115.881 31.468 114.661 28.3882 110.077C23.091 102.192 20 92.6918 20 82.5C20 55.1619 42.1619 33 69.5 33C96.8381 33 119 55.1619 119 82.5C119 88.0228 114.523 92.5 109 92.5C103.477 92.5 99 88.0228 99 82.5C99 66.2076 85.7924 53 69.5 53Z" fill="url(#paint6_radial_1_316)"/>
<circle cx="68.5001" cy="82.5" r="14.5" fill="url(#paint7_radial_1_316)"/>
<path fill-rule="evenodd" clip-rule="evenodd" d="M69.0001 114C86.6732 114 101 99.6731 101 82C101 64.3269 86.6732 50 69.0001 50C51.327 50 37.0001 64.3269 37.0001 82C37.0001 99.6731 51.327 114 69.0001 114ZM69.0001 105C81.7026 105 92.0001 94.7025 92.0001 82C92.0001 69.2975 81.7026 59 69.0001 59C56.2975 59 46.0001 69.2975 46.0001 82C46.0001 94.7025 56.2975 105 69.0001 105Z" fill="url(#paint8_angular_1_316)"/>
<path fill-rule="evenodd" clip-rule="evenodd" d="M69 114C86.6731 114 101 99.6731 101 82C101 64.3269 86.6731 50 69 50C51.3269 50 37 64.3269 37 82C37 99.6731 51.3269 114 69 114ZM69 105C81.7025 105 92 94.7025 92 82C92 69.2975 81.7025 59 69 59C56.2975 59 46 69.2975 46 82C46 94.7025 56.2975 105 69 105Z" fill="url(#paint9_linear_1_316)"/>
<circle cx="69" cy="82" r="4" fill="url(#paint10_radial_1_316)"/>
<circle cx="122.5" cy="39.5" r="2.5" fill="#AB7EEC"/>
<circle cx="128.5" cy="23.5" r="5.5" fill="#372BE5"/>
<circle cx="23" cy="152" r="4" fill="#BF6AFA"/>
<circle cx="11" cy="122" r="2" fill="#372BE5"/>
<circle cx="10" cy="135" r="1" fill="#171081"/>
<circle cx="119" cy="133" r="4" fill="#D3A8F0"/>
<defs>
<radialGradient id="paint0_radial_1_316" cx="0" cy="0" r="1" gradientUnits="userSpaceOnUse" gradientTransform="translate(69 6) rotate(90) scale(146.5)">
<stop stop-color="#454661" stop-opacity="0.32"/>
<stop offset="1" stop-color="#3F58D9"/>
</radialGradient>
<radialGradient id="paint1_radial_1_316" cx="0" cy="0" r="1" gradientUnits="userSpaceOnUse" gradientTransform="translate(69.5 19.582) rotate(90) scale(121.283)">
<stop stop-color="#454661" stop-opacity="0.32"/>
<stop offset="1" stop-color="#3F58D9"/>
</radialGradient>
<radialGradient id="paint2_radial_1_316" cx="0" cy="0" r="1" gradientUnits="userSpaceOnUse" gradientTransform="translate(69.5 33.2869) rotate(90) scale(94.8648)">
<stop stop-color="#454661" stop-opacity="0.32"/>
<stop offset="1" stop-color="#3F58D9"/>
</radialGradient>
<radialGradient id="paint3_radial_1_316" cx="0" cy="0" r="1" gradientUnits="userSpaceOnUse" gradientTransform="translate(69 47.1148) rotate(90) scale(67.2459)">
<stop stop-color="#454661" stop-opacity="0.32"/>
<stop offset="1" stop-color="#3F58D9"/>
</radialGradient>
<radialGradient id="paint4_radial_1_316" cx="0" cy="0" r="1" gradientUnits="userSpaceOnUse" gradientTransform="translate(91.6704 13.5896) rotate(144.976) scale(135.753)">
<stop stop-color="#9141E0"/>
<stop offset="0.17" stop-color="#4E41E0"/>
<stop offset="1" stop-color="#090072"/>
</radialGradient>
<linearGradient id="paint5_linear_1_316" x1="88" y1="33" x2="125.5" y2="116.5" gradientUnits="userSpaceOnUse">
<stop stop-color="#2E22A9"/>
<stop offset="1" stop-color="#1A1571"/>
</linearGradient>
<radialGradient id="paint6_radial_1_316" cx="0" cy="0" r="1" gradientUnits="userSpaceOnUse" gradientTransform="translate(90 39) rotate(115.615) scale(80.9568 80.9568)">
<stop stop-color="#7E42E0"/>
<stop offset="0.5" stop-color="#2521DD"/>
<stop offset="1" stop-color="#020073"/>
</radialGradient>
<radialGradient id="paint7_radial_1_316" cx="0" cy="0" r="1" gradientUnits="userSpaceOnUse" gradientTransform="translate(70.622 72.5976) rotate(94.9697) scale(24.4945)">
<stop stop-color="#8466E7"/>
<stop offset="1" stop-color="#5A4BE2"/>
</radialGradient>
<radialGradient id="paint8_angular_1_316" cx="0" cy="0" r="1" gradientUnits="userSpaceOnUse" gradientTransform="translate(73.6829 60.1463) rotate(94.9697) scale(54.0569)">
<stop stop-color="#A154CF"/>
<stop offset="0.15" stop-color="#3A40CF"/>
<stop offset="1" stop-color="#3122C0"/>
</radialGradient>
<linearGradient id="paint9_linear_1_316" x1="55" y1="58" x2="77.5" y2="117.5" gradientUnits="userSpaceOnUse">
<stop stop-color="#0C01F8" stop-opacity="0.52"/>
<stop offset="0.470359" stop-color="#1000C6" stop-opacity="0.4018"/>
<stop offset="0.817159" stop-color="#3B11B2" stop-opacity="0.44077"/>
<stop offset="1" stop-color="#FFC700" stop-opacity="0.46"/>
</linearGradient>
<radialGradient id="paint10_radial_1_316" cx="0" cy="0" r="1" gradientUnits="userSpaceOnUse" gradientTransform="translate(69.5854 79.2683) rotate(94.9697) scale(6.75711)">
<stop stop-color="#E7B366"/>
<stop offset="1" stop-color="#E24BCA"/>
</radialGradient>
</defs>
</svg>
