<svg width="830" height="446" viewBox="0 0 830 446" fill="none" xmlns="http://www.w3.org/2000/svg">
<path d="M829 43C811.604 67.6323 786.298 93.39 755.5 96.3582C734 98.4304 683.5 82.8891 638.5 89.6237C593.5 96.3582 563.5 177.691 530.5 203.075C497.5 228.459 498.5 170.956 455 179.245C411.5 187.533 424.5 236.229 392 260.059C359.5 283.889 319 292.696 285.5 305.647C252 318.598 234 389.052 188.5 412.881C143 436.711 1 445 1 445" stroke="url(#paint0_linear_1_8)"/>
<path d="M829 1C811.604 28.2059 786.298 56.6546 755.5 59.933C734 62.2216 683.5 45.0567 638.5 52.4948C593.5 59.933 563.5 149.763 530.5 177.799C497.5 205.835 498.5 142.325 455 151.479C411.5 160.634 424.5 214.418 392 240.737C359.5 267.057 319 276.783 285.5 291.088C252 305.392 234 383.206 188.5 409.526C143 435.845 1 445 1 445" stroke="url(#paint1_linear_1_8)"/>
<path d="M285.5 310.847C252 323.314 234 391.139 188.5 414.08C143 437.021 1.00024 445 1.00024 445H829V58C811.604 81.7132 786.298 106.51 755.5 109.367C734 111.362 683.5 96.4007 638.5 102.884C593.5 109.367 563.5 187.665 530.5 212.102C497.5 236.539 498.5 181.182 455 189.161C411.5 197.14 424.5 244.019 392 266.96C359.5 289.901 319 298.379 285.5 310.847Z" fill="url(#paint2_linear_1_8)"/>
<path d="M785.583 107.899C810.535 99.944 829 111.5 829 111.5V445L303 442.017C303 442.017 400.814 289.874 447.226 274.461C493.638 259.048 490.643 291.863 522.583 280.924C554.522 269.986 571.49 203.361 609.417 191.926C647.345 180.49 647.345 207.836 682.279 191.926C717.213 176.015 760.63 115.854 785.583 107.899Z" fill="url(#paint3_linear_1_8)"/>
<path d="M829 87.8491C829 87.8491 810.535 75.4736 785.583 83.9929C760.63 92.5123 717.213 156.94 682.279 173.978C647.345 191.017 647.345 161.732 609.417 173.978C571.49 186.225 554.522 257.575 522.583 269.289C490.643 281.003 493.638 245.86 447.226 262.367C400.814 278.873 303 441.805 303 441.805" stroke="url(#paint4_linear_1_8)"/>
<path d="M829 102.568C829 102.568 810.535 90.7004 785.583 98.8701C760.63 107.04 717.213 168.824 682.279 185.163C647.345 201.503 647.345 173.419 609.417 185.163C571.49 196.907 554.522 265.329 522.583 276.562C490.643 287.796 493.638 254.096 447.226 269.924C400.814 285.753 303 442 303 442" stroke="url(#paint5_linear_1_8)"/>
<path d="M273 328.634C247 346.039 215 404.222 178 416.654C141 429.087 1.00024 445 1.00024 445H827L829 290C829 290 696 368.915 635.5 358.969C575 349.023 560 148.118 501 153.091C442 158.064 440.5 247.576 395.5 283.381C350.5 319.185 299 311.229 273 328.634Z" fill="url(#paint6_linear_1_8)"/>
<path d="M829 285.753C829 285.753 696 366.83 635.5 356.612C575 346.393 560 139.984 501 145.093C442 150.202 440.5 242.167 395.5 278.953C350.5 315.739 299 307.564 273 325.446C247 343.328 215 403.105 178 415.878C141 428.651 1 445 1 445" stroke="url(#paint7_linear_1_8)"/>
<ellipse cx="367.242" cy="295.656" rx="3.64699" ry="3.34307" fill="#C2F8FF" fill-opacity="0.7"/>
<circle opacity="0.93" cx="390.324" cy="282.572" r="2.68923" transform="rotate(138 390.324 282.572)" fill="#C2F8FF" fill-opacity="0.7"/>
<circle opacity="0.86" cx="531.734" cy="240.968" r="2.84057" transform="rotate(-126 531.734 240.968)" fill="#40DCFF" fill-opacity="0.7"/>
<circle opacity="0.7" cx="634.708" cy="288.177" r="3.67877" transform="rotate(67 634.708 288.177)" fill="#40DCFF" fill-opacity="0.7"/>
<circle opacity="0.79" cx="344.326" cy="360.849" r="2.0955" transform="rotate(-16 344.326 360.849)" fill="#C2F8FF" fill-opacity="0.7"/>
<circle opacity="0.81" cx="421.885" cy="335.638" r="3.98146" transform="rotate(140 421.885 335.638)" fill="#C2F8FF" fill-opacity="0.7"/>
<circle cx="648.455" cy="336.02" r="4.88951" transform="rotate(100 648.455 336.02)" fill="#40DCFF" fill-opacity="0.7"/>
<circle opacity="0.93" cx="251.666" cy="404.934" r="5.30861" transform="rotate(176 251.666 404.934)" fill="#40DCFF" fill-opacity="0.7"/>
<circle opacity="0.89" cx="456.452" cy="396.881" r="5.40174" transform="rotate(114 456.452 396.881)" fill="#40DCFF" fill-opacity="0.7"/>
<circle opacity="0.72" cx="666.203" cy="396.228" r="4.56354" transform="rotate(177 666.203 396.228)" fill="#40DCFF" fill-opacity="0.7"/>
<circle opacity="0.89" cx="205.429" cy="406.103" r="2.60855" transform="rotate(114 205.429 406.103)" fill="#40DCFF" fill-opacity="0.7"/>
<circle opacity="0.85" cx="251.947" cy="275.95" r="1.79655" transform="rotate(141 251.947 275.95)" fill="#C2F8FF" fill-opacity="0.7"/>
<ellipse cx="263.17" cy="314.031" rx="1.4596" ry="1.33796" transform="rotate(97 263.17 314.031)" fill="#C2F8FF" fill-opacity="0.7"/>
<circle opacity="0.99" cx="307.275" cy="246.03" r="1.51332" transform="rotate(95 307.275 246.03)" fill="#1C41C2" fill-opacity="0.7"/>
<ellipse opacity="0.79" cx="288.682" cy="239.277" rx="1.67853" ry="1.53866" transform="rotate(-47 288.682 239.277)" fill="#C2F8FF" fill-opacity="0.7"/>
<ellipse opacity="0.76" cx="346.691" cy="251.438" rx="1.13848" ry="1.04361" transform="rotate(62 346.691 251.438)" fill="#C2F8FF" fill-opacity="0.7"/>
<circle opacity="0.94" cx="543.504" cy="240.094" r="1.32463" transform="rotate(44 543.504 240.094)" fill="#C2F8FF" fill-opacity="0.7"/>
<circle cx="198.731" cy="268.014" r="1.68875" transform="rotate(-3 198.731 268.014)" fill="#C2F8FF" fill-opacity="0.7"/>
<ellipse opacity="0.99" cx="353.779" cy="257.66" rx="1.4304" ry="1.3112" transform="rotate(141 353.779 257.66)" fill="#C2F8FF" fill-opacity="0.7"/>
<circle opacity="0.77" cx="587.447" cy="271.689" r="2.00858" transform="rotate(54 587.447 271.689)" fill="#40DCFF" fill-opacity="0.7"/>
<circle cx="295.068" cy="285.418" r="1.54359" transform="rotate(-100 295.068 285.418)" fill="#1C41C2" fill-opacity="0.7"/>
<circle cx="460.965" cy="288.248" r="1.08959" transform="rotate(119 460.965 288.248)" fill="white" fill-opacity="0.7"/>
<circle opacity="0.73" cx="638.914" cy="284.82" r="1.68875" transform="rotate(-28 638.914 284.82)" fill="#C2F8FF" fill-opacity="0.7"/>
<circle opacity="0.87" cx="177.778" cy="301.474" r="1.05932" transform="rotate(47 177.778 301.474)" fill="#1C41C2" fill-opacity="0.7"/>
<circle opacity="0.86" cx="396.185" cy="294.38" r="1.36537" transform="rotate(-124 396.185 294.38)" fill="#C2F8FF" fill-opacity="0.7"/>
<circle opacity="0.82" cx="650.625" cy="293.456" r="1.12983" transform="rotate(-142 650.625 293.456)" fill="#C2F8FF" fill-opacity="0.7"/>
<ellipse opacity="0.88" cx="215.48" cy="325.798" rx="1.32823" ry="1.21755" transform="rotate(90 215.48 325.798)" fill="#C2F8FF" fill-opacity="0.7"/>
<circle opacity="0.87" cx="424.911" cy="327.046" r="1.59121" transform="rotate(-75 424.911 327.046)" fill="#40DCFF" fill-opacity="0.7"/>
<circle opacity="0.71" cx="539.2" cy="328.625" r="1.9762" transform="rotate(165 539.2 328.625)" fill="#C2F8FF" fill-opacity="0.7"/>
<ellipse opacity="0.72" cx="217.175" cy="347.906" rx="1.63475" ry="1.49852" transform="rotate(-3 217.175 347.906)" fill="#C2F8FF" fill-opacity="0.7"/>
<circle opacity="0.81" cx="470.278" cy="353.287" r="1.34741" transform="rotate(32 470.278 353.287)" fill="#C2F8FF" fill-opacity="0.7"/>
<circle opacity="0.96" cx="661.224" cy="344.819" r="1.69492" transform="rotate(-152 661.224 344.819)" fill="#1C41C2" fill-opacity="0.7"/>
<circle opacity="0.75" cx="336.251" cy="367.12" r="1.23962" transform="rotate(29 336.251 367.12)" fill="#C2F8FF" fill-opacity="0.7"/>
<circle opacity="0.79" cx="347.714" cy="357.308" r="1.4552" transform="rotate(-117 347.714 357.308)" fill="#C2F8FF" fill-opacity="0.7"/>
<circle opacity="0.94" cx="581.132" cy="365.328" r="1.27555" transform="rotate(-177 581.132 365.328)" fill="#C2F8FF" fill-opacity="0.7"/>
<circle opacity="0.94" cx="231.512" cy="373.076" r="1.33761" transform="rotate(-94 231.512 373.076)" fill="#C2F8FF" fill-opacity="0.7"/>
<circle opacity="0.94" cx="442.122" cy="381.732" r="1.77381" transform="rotate(-49 442.122 381.732)" fill="#40DCFF" fill-opacity="0.7"/>
<circle opacity="0.91" cx="539.681" cy="392.91" r="0.883083" transform="rotate(20 539.681 392.91)" fill="#C2F8FF" fill-opacity="0.7"/>
<circle opacity="0.91" cx="178.07" cy="398.62" r="1.25758" transform="rotate(79 178.07 398.62)" fill="#C2F8FF" fill-opacity="0.7"/>
<circle opacity="0.82" cx="391.172" cy="396.283" r="1.70672" transform="rotate(68 391.172 396.283)" fill="#C2F8FF" fill-opacity="0.7"/>
<circle opacity="0.95" cx="675.637" cy="412.317" r="1.13499" transform="rotate(40 675.637 412.317)" fill="#1C41C2" fill-opacity="0.7"/>
<circle opacity="0.74" cx="169.022" cy="413.964" r="1.81451" transform="rotate(97 169.022 413.964)" fill="#C2F8FF" fill-opacity="0.7"/>
<ellipse opacity="0.88" cx="430.635" cy="421.116" rx="1.57636" ry="1.445" transform="rotate(23 430.635 421.116)" fill="#C2F8FF" fill-opacity="0.7"/>
<ellipse opacity="0.9" cx="564.691" cy="91.9392" rx="2.48913" ry="2.2817" transform="rotate(162 564.691 91.9392)" fill="#111F87"/>
<circle opacity="0.94" cx="576.755" cy="94.059" r="2.53466" transform="rotate(-161 576.755 94.059)" fill="#111F87"/>
<circle opacity="0.85" cx="620.719" cy="116.35" r="2.42626" transform="rotate(14 620.719 116.35)" fill="#111F87"/>
<circle opacity="0.85" cx="552.781" cy="127.363" r="3.72026" transform="rotate(141 552.781 127.363)" fill="#111F87"/>
<ellipse opacity="0.87" cx="533.528" cy="148.385" rx="2.60765" ry="2.39035" transform="rotate(44 533.528 148.385)" fill="#111F87"/>
<circle opacity="0.89" cx="601.309" cy="136.224" r="2.16746" transform="rotate(179 601.309 136.224)" fill="#111F87"/>
<ellipse opacity="0.92" cx="610.927" cy="160.426" rx="2.2817" ry="2.09156" transform="rotate(77 610.927 160.426)" fill="#111F87"/>
<ellipse opacity="0.86" cx="529.191" cy="185.127" rx="2.42986" ry="2.22737" transform="rotate(-28 529.191 185.127)" fill="#111F87"/>
<circle opacity="0.83" cx="623.492" cy="199.552" r="2.26451" transform="rotate(51 623.492 199.552)" fill="#111F87"/>
<ellipse opacity="0.71" cx="531.889" cy="203.834" rx="1.98537" ry="1.81993" transform="rotate(-54 531.889 203.834)" fill="#111F87"/>
<ellipse cx="576.02" cy="206.221" rx="3.02251" ry="2.77063" transform="rotate(97 576.02 206.221)" fill="#111F87"/>
<circle opacity="0.92" cx="626.96" cy="211.577" r="2.52331" transform="rotate(-110 626.96 211.577)" fill="#111F87"/>
<circle opacity="0.97" cx="718.377" cy="50.0945" r="3.04423" transform="rotate(153 718.377 50.0945)" fill="#1C41C2" fill-opacity="0.7"/>
<circle opacity="0.99" cx="667.354" cy="65.4053" r="3.13376" transform="rotate(95 667.354 65.4053)" fill="#1C41C2" fill-opacity="0.7"/>
<circle opacity="0.74" cx="638.552" cy="73.5487" r="1.49174" transform="rotate(44 638.552 73.5487)" fill="#1C41C2" fill-opacity="0.7"/>
<ellipse opacity="0.91" cx="704.522" cy="80.282" rx="2.24173" ry="2.05492" transform="rotate(124 704.522 80.282)" fill="#1C41C2" fill-opacity="0.7"/>
<circle opacity="0.82" cx="807.67" cy="83.4013" r="2.03603" transform="rotate(9 807.67 83.4013)" fill="#1C41C2" fill-opacity="0.7"/>
<circle opacity="0.76" cx="642.985" cy="86.5011" r="1.75381" transform="rotate(-173 642.985 86.5011)" fill="#1C41C2" fill-opacity="0.7"/>
<circle opacity="0.93" cx="706.307" cy="104.186" r="1.29016" transform="rotate(-175 706.307 104.186)" fill="#1C41C2" fill-opacity="0.7"/>
<circle opacity="0.75" cx="609.49" cy="116.126" r="2.29809" transform="rotate(175 609.49 116.126)" fill="#1C41C2" fill-opacity="0.7"/>
<ellipse opacity="0.8" cx="698.452" cy="110.684" rx="2.78849" ry="2.55612" transform="rotate(-133 698.452 110.684)" fill="#1C41C2" fill-opacity="0.7"/>
<ellipse opacity="0.88" cx="781.9" cy="110.245" rx="2.84317" ry="2.60624" transform="rotate(-61 781.9 110.245)" fill="#1C41C2" fill-opacity="0.7"/>
<circle opacity="0.74" cx="731.791" cy="122.824" r="2.37873" transform="rotate(-54 731.791 122.824)" fill="#1C41C2" fill-opacity="0.7"/>
<circle opacity="0.75" cx="708.573" cy="133.557" r="2.38763" transform="rotate(-155 708.573 133.557)" fill="#1C41C2" fill-opacity="0.7"/>
<ellipse opacity="0.97" cx="635.09" cy="155.988" rx="3.00719" ry="2.75659" transform="rotate(-78 635.09 155.988)" fill="#1C41C2" fill-opacity="0.7"/>
<circle opacity="0.86" cx="720.278" cy="196.833" r="3.52175" transform="rotate(59 720.278 196.833)" fill="#1C41C2" fill-opacity="0.7"/>
<ellipse opacity="0.73" cx="797.161" cy="165.181" rx="2.95252" ry="2.70648" transform="rotate(-5 797.161 165.181)" fill="#1C41C2" fill-opacity="0.7"/>
<circle opacity="0.82" cx="709.633" cy="183.418" r="1.89492" transform="rotate(106 709.633 183.418)" fill="#1C41C2" fill-opacity="0.7"/>
<circle opacity="0.89" cx="770.332" cy="179.13" r="3.46206" transform="rotate(68 770.332 179.13)" fill="#1C41C2" fill-opacity="0.7"/>
<circle opacity="0.91" cx="665.55" cy="209.067" r="1.39095" transform="rotate(83 665.55 209.067)" fill="#1C41C2" fill-opacity="0.7"/>
<circle opacity="0.79" cx="802.409" cy="191.354" r="1.67317" transform="rotate(164 802.409 191.354)" fill="#1C41C2" fill-opacity="0.7"/>
<circle opacity="0.74" cx="654.528" cy="196.789" r="2.1973" transform="rotate(-130 654.528 196.789)" fill="#1C41C2" fill-opacity="0.7"/>
<path d="M76.1361 351.115C23.0399 348.413 1 386.238 1 386.238V445H829V278.844C752.326 278.844 683.976 421.139 609.603 431.491C531.962 442.298 509.841 266.167 457.828 270.064C430.779 272.09 412.746 336.256 388.202 337.607C363.657 338.957 337.109 314.642 294.532 317.344C251.955 320.045 220.397 381.51 185.835 386.238C151.272 390.966 129.232 353.817 76.1361 351.115Z" fill="url(#paint8_linear_1_8)"/>
<path d="M76.1364 375.794C23.0402 373.802 1.00024 401.684 1.00024 401.684V445H829V322.52C752.327 322.52 683.977 427.411 609.603 435.042C531.962 443.008 509.841 313.175 457.828 316.047C430.779 317.541 412.746 364.84 388.202 365.836C363.657 366.832 337.109 348.908 294.532 350.899C251.955 352.891 220.398 398.199 185.835 401.684C151.272 405.169 129.233 377.785 76.1364 375.794Z" fill="url(#paint9_linear_1_8)"/>
<g opacity="0.5">
<path d="M698.264 193.174C706.817 191.3 716.576 192.55 727.782 196.369C741.681 201.105 747 208.632 752.968 218.867C766.582 242.218 773.03 272.233 767.343 298.92C756.745 348.654 698.448 381.808 650.023 373.013C626.293 368.703 599.333 353.486 593.38 328.416C586.758 300.53 592.149 268.193 609.706 245.492C630.454 218.664 665.403 200.373 698.264 193.174Z" stroke="url(#paint10_linear_1_8)" stroke-linecap="round"/>
<path d="M695.426 207.384C702.848 205.722 711.331 206.768 721.082 210.037C733.177 214.092 737.83 220.604 743.058 229.464C754.986 249.679 760.718 275.708 755.894 298.898C746.904 342.114 696.406 371.132 654.301 363.695C633.669 360.051 610.183 346.951 604.902 325.212C599.029 301.032 603.571 272.939 618.724 253.161C636.631 229.788 666.911 213.767 695.426 207.384Z" stroke="url(#paint11_linear_1_8)" stroke-linecap="round"/>
<path d="M730.936 329.581C727.974 335.308 722.556 340.835 714.903 346.47C705.411 353.46 698.343 354.432 689.337 354.989C668.791 356.261 647.665 351.215 634.34 339.827C609.508 318.603 617.448 273.489 645.886 246.841C659.821 233.782 681.858 222.021 699.776 225.893C719.706 230.199 736.568 243.091 741.822 260.467C748.03 281.001 742.318 307.574 730.936 329.581Z" stroke="url(#paint12_linear_1_8)" stroke-linecap="round"/>
<path d="M727.229 312.375C726.181 317.224 723.27 322.416 718.721 328.139C713.078 335.238 708.025 337.381 701.45 339.605C686.45 344.681 669.749 345.182 657.566 339.405C634.86 328.639 631.685 293.545 647.442 268.04C655.164 255.542 669.162 242.378 683.245 241.65C698.909 240.841 714.021 247.023 721.416 258.868C730.155 272.867 731.256 293.746 727.229 312.375Z" stroke="url(#paint13_linear_1_8)" stroke-linecap="round"/>
<path d="M707.113 313.706C705.325 316.454 702.306 318.977 698.151 321.442C692.996 324.499 689.372 324.634 684.788 324.462C674.33 324.07 663.896 320.452 657.73 314.019C646.238 302.03 652.53 279.608 668.26 267.561C675.968 261.657 687.709 256.819 696.578 259.681C706.443 262.864 714.323 270.237 716.105 279.292C718.21 289.992 713.981 303.147 707.113 313.706Z" stroke="url(#paint14_linear_1_8)" stroke-linecap="round"/>
</g>
<circle cx="694.106" cy="290.106" r="18.8657" transform="rotate(-105 694.106 290.106)" fill="url(#paint15_radial_1_8)"/>
<circle cx="719.523" cy="235.36" r="6.93626" transform="rotate(-105 719.523 235.36)" fill="url(#paint16_radial_1_8)"/>
<circle cx="718.407" cy="292.407" r="10.9464" transform="rotate(-105 718.407 292.407)" fill="url(#paint17_radial_1_8)"/>
<path d="M1 376.836C1 376.836 23.0399 332.96 76.1361 336.094C129.232 339.228 151.272 382.32 185.835 376.836C220.397 371.351 251.955 300.053 294.532 296.919C337.109 293.785 363.657 321.991 388.202 320.424C412.746 318.857 430.779 244.424 457.828 242.074C509.841 237.554 531.962 441.866 609.603 429.33C683.976 417.321 752.326 252.259 829 252.259" stroke="url(#paint18_linear_1_8)"/>
<path d="M1 397.083C1 397.083 23.0399 381.436 76.1361 382.554C129.232 383.672 151.272 399.039 185.835 397.083C220.397 395.127 251.955 369.702 294.532 368.584C337.109 367.467 363.657 377.525 388.201 376.966C412.746 376.407 430.779 349.865 457.828 349.026C509.841 347.415 531.962 420.273 609.603 415.802C683.976 411.52 752.326 352.659 829 352.659" stroke="url(#paint19_linear_1_8)"/>
<path d="M726.992 283C764.492 250 828.992 237 828.992 237V445H588.492C588.492 445 618.492 423 635.992 403.5C653.492 384 689.492 316 726.992 283Z" fill="url(#paint20_linear_1_8)"/>
<ellipse cx="540.307" cy="326.365" rx="3.31803" ry="3.04153" fill="white" fill-opacity="0.92"/>
<circle opacity="0.93" cx="561.306" cy="314.461" r="2.44667" transform="rotate(138 561.306 314.461)" fill="white" fill-opacity="0.92"/>
<circle opacity="0.86" cx="689.961" cy="276.61" r="2.58436" transform="rotate(-126 689.961 276.61)" fill="#5DE1FF"/>
<circle opacity="0.7" cx="783.647" cy="319.561" r="3.34696" transform="rotate(67 783.647 319.561)" fill="#5DE1FF"/>
<circle opacity="0.79" cx="519.457" cy="385.678" r="1.90649" transform="rotate(-16 519.457 385.678)" fill="white" fill-opacity="0.92"/>
<circle opacity="0.81" cx="590.021" cy="362.741" r="3.62234" transform="rotate(140 590.021 362.741)" fill="white" fill-opacity="0.92"/>
<circle cx="796.154" cy="363.089" r="4.44848" transform="rotate(100 796.154 363.089)" fill="#5DE1FF"/>
<circle opacity="0.93" cx="435.155" cy="425.787" r="4.82978" transform="rotate(176 435.155 425.787)" fill="#5DE1FF"/>
<circle opacity="0.89" cx="621.47" cy="418.46" r="4.91452" transform="rotate(114 621.47 418.46)" fill="#5DE1FF"/>
<circle opacity="0.72" cx="812.302" cy="417.866" r="4.15192" transform="rotate(177 812.302 417.866)" fill="#5DE1FF"/>
<defs>
<linearGradient id="paint0_linear_1_8" x1="785.5" y1="72.5" x2="45" y2="396" gradientUnits="userSpaceOnUse">
<stop stop-color="#5344FF" stop-opacity="0.66"/>
<stop offset="0.465838" stop-color="#65DAF8"/>
<stop offset="1" stop-color="#0F00B8" stop-opacity="0"/>
</linearGradient>
<linearGradient id="paint1_linear_1_8" x1="785.5" y1="33.5821" x2="22.9733" y2="335.193" gradientUnits="userSpaceOnUse">
<stop stop-color="#1D10AC" stop-opacity="0.66"/>
<stop offset="1" stop-color="#0F00B8" stop-opacity="0.76"/>
</linearGradient>
<linearGradient id="paint2_linear_1_8" x1="446" y1="139" x2="767.891" y2="376.505" gradientUnits="userSpaceOnUse">
<stop stop-color="#8FA9FF"/>
<stop offset="0.515" stop-color="#2256FF"/>
<stop offset="1" stop-color="#002AB3"/>
</linearGradient>
<linearGradient id="paint3_linear_1_8" x1="430.258" y1="234.685" x2="786.861" y2="341.814" gradientUnits="userSpaceOnUse">
<stop offset="0.0911019" stop-color="#275AFF"/>
<stop offset="1" stop-color="#1C1D5C"/>
</linearGradient>
<linearGradient id="paint4_linear_1_8" x1="566" y1="81" x2="566" y2="441.805" gradientUnits="userSpaceOnUse">
<stop stop-color="#4256F0"/>
<stop offset="1" stop-color="#0B008A" stop-opacity="0.58"/>
</linearGradient>
<linearGradient id="paint5_linear_1_8" x1="566" y1="96" x2="566" y2="442" gradientUnits="userSpaceOnUse">
<stop stop-color="#5A6CFF"/>
<stop offset="1" stop-color="white" stop-opacity="0.29"/>
</linearGradient>
<linearGradient id="paint6_linear_1_8" x1="414" y1="153.319" x2="414" y2="445" gradientUnits="userSpaceOnUse">
<stop stop-color="#9EEBF7"/>
<stop offset="0.46" stop-color="#2AE5FF" stop-opacity="0.74"/>
<stop offset="1" stop-color="#4BA4DE" stop-opacity="0.46"/>
</linearGradient>
<linearGradient id="paint7_linear_1_8" x1="415" y1="145" x2="415" y2="445" gradientUnits="userSpaceOnUse">
<stop stop-color="#59D5F7" stop-opacity="0.34"/>
<stop offset="1" stop-color="#59D5F7" stop-opacity="0"/>
</linearGradient>
<linearGradient id="paint8_linear_1_8" x1="205.871" y1="320.045" x2="638.461" y2="371.135" gradientUnits="userSpaceOnUse">
<stop stop-color="#3C29CC" stop-opacity="0.05"/>
<stop offset="1" stop-color="#002A98"/>
</linearGradient>
<linearGradient id="paint9_linear_1_8" x1="205.871" y1="352.89" x2="698.84" y2="437.926" gradientUnits="userSpaceOnUse">
<stop stop-color="#3C29CC" stop-opacity="0.68"/>
<stop offset="0.445" stop-color="#192AAE" stop-opacity="0.8656"/>
<stop offset="0.755" stop-color="#001856"/>
</linearGradient>
<linearGradient id="paint10_linear_1_8" x1="728.04" y1="185.88" x2="662.068" y2="375.621" gradientUnits="userSpaceOnUse">
<stop stop-color="#BDF1FF"/>
<stop offset="1" stop-color="#59D5F7" stop-opacity="0"/>
</linearGradient>
<linearGradient id="paint11_linear_1_8" x1="793.819" y1="279.567" x2="664.792" y2="365.934" gradientUnits="userSpaceOnUse">
<stop stop-color="#BDF1FF" stop-opacity="0.7"/>
<stop offset="1" stop-color="#59D5F7" stop-opacity="0"/>
</linearGradient>
<linearGradient id="paint12_linear_1_8" x1="689.409" y1="318.882" x2="619.618" y2="254.474" gradientUnits="userSpaceOnUse">
<stop stop-color="#BDF1FF" stop-opacity="0.56"/>
<stop offset="1" stop-color="#59D5F7" stop-opacity="0"/>
</linearGradient>
<linearGradient id="paint13_linear_1_8" x1="694.244" y1="312.781" x2="629.473" y2="278.989" gradientUnits="userSpaceOnUse">
<stop stop-color="#BDF1FF" stop-opacity="0.56"/>
<stop offset="1" stop-color="#59D5F7" stop-opacity="0"/>
</linearGradient>
<linearGradient id="paint14_linear_1_8" x1="686.645" y1="306.2" x2="654.586" y2="270.098" gradientUnits="userSpaceOnUse">
<stop stop-color="#BDF1FF" stop-opacity="0.56"/>
<stop offset="1" stop-color="#59D5F7" stop-opacity="0"/>
</linearGradient>
<radialGradient id="paint15_radial_1_8" cx="0" cy="0" r="1" gradientUnits="userSpaceOnUse" gradientTransform="translate(703.014 281.721) rotate(108.104) scale(28.6697)">
<stop stop-color="#B6F2FF"/>
<stop offset="1" stop-color="#3194A9"/>
</radialGradient>
<radialGradient id="paint16_radial_1_8" cx="0" cy="0" r="1" gradientUnits="userSpaceOnUse" gradientTransform="translate(722.799 232.277) rotate(108.104) scale(10.5409)">
<stop stop-color="#585FFF"/>
<stop offset="1" stop-color="#182B72"/>
</radialGradient>
<radialGradient id="paint17_radial_1_8" cx="0" cy="0" r="1" gradientUnits="userSpaceOnUse" gradientTransform="translate(723.576 287.542) rotate(108.104) scale(16.635)">
<stop stop-color="#2D79D3"/>
<stop offset="1" stop-color="#182B72"/>
</radialGradient>
<linearGradient id="paint18_linear_1_8" x1="537.5" y1="225" x2="415" y2="445" gradientUnits="userSpaceOnUse">
<stop stop-color="#344FDB"/>
<stop offset="1" stop-color="#6865F8" stop-opacity="0.23"/>
</linearGradient>
<linearGradient id="paint19_linear_1_8" x1="537.5" y1="342.938" x2="517.866" y2="441.816" gradientUnits="userSpaceOnUse">
<stop stop-color="#4664FF"/>
<stop offset="1" stop-color="#6865F8" stop-opacity="0.23"/>
</linearGradient>
<linearGradient id="paint20_linear_1_8" x1="709.742" y1="237" x2="709.742" y2="445" gradientUnits="userSpaceOnUse">
<stop stop-color="#2F2F8F" stop-opacity="0.6"/>
<stop offset="1" stop-color="#131368"/>
</linearGradient>
</defs>
</svg>
